<svg width="1480" height="35" xmlns="http://www.w3.org/2000/svg">

 <g>
  <title>Layer 1</title>
  <path transform="rotate(45 82.2547 306.146)" stroke="#ffffff" id="svg_4" d="m76.78706,300.67812l10.93519,0l0,10.9352l-10.93519,0l0,-10.9352z" opacity="undefined" stroke-width="3" fill="#ffffff"/>
  <line stroke="#ffffff" stroke-width="3" stroke-linecap="undefined" stroke-linejoin="undefined" id="svg_1" y2="17.37326" x2="342.8966" y1="17.37326" x1="87.94559" fill="none"/>
  <path transform="rotate(45 889.503 16.1905)" stroke="#ffffff" id="svg_3" d="m884.03484,10.72295l10.9352,0l0,10.9352l-10.9352,0l0,-10.9352z" opacity="undefined" stroke-width="3" fill="#ffffff"/>
  <line stroke-dasharray="5,5" stroke="#ffffff" stroke-width="3" stroke-linecap="undefined" stroke-linejoin="undefined" id="svg_7" y2="17.37326" x2="613.56326" y1="17.37326" x1="358.61226" fill="none"/>
  <path transform="rotate(45 619.18 16.1905)" stroke="#ffffff" id="svg_8" d="m613.71251,10.72295l10.9352,0l0,10.9352l-10.9352,0l0,-10.9352z" opacity="undefined" stroke-width="3" fill="#ffffff"/>
  <line stroke-dasharray="5,5" stroke="#ffffff" stroke-width="3" stroke-linecap="undefined" stroke-linejoin="undefined" id="svg_9" y2="17.37326" x2="881.99408" y1="17.37326" x1="627.04308" fill="none"/>
  <path transform="rotate(45 350 16.1905)" stroke="#ffffff" id="svg_10" d="m344.53264,10.72295l10.9352,0l0,10.9352l-10.9352,0l0,-10.9352z" opacity="undefined" stroke-width="3" fill="#ffffff"/>
  <path transform="rotate(45 1159.02 16.1905)" stroke="#ffffff" id="svg_11" d="m1153.55374,10.72295l10.9352,0l0,10.9352l-10.9352,0l0,-10.9352z" opacity="undefined" stroke-width="3" fill="#ffffff"/>
  <line stroke-dasharray="5,5" stroke="#ffffff" stroke-width="3" stroke-linecap="undefined" stroke-linejoin="undefined" id="svg_14" y2="17.37326" x2="1422.18289" y1="17.37326" x1="1167.23189" fill="none"/>
  <line stroke-dasharray="5,5" stroke="#ffffff" stroke-width="3" stroke-linecap="undefined" stroke-linejoin="undefined" id="svg_15" y2="17.37326" x2="1152.79678" y1="17.37326" x1="897.84578" fill="none"/>
  <path transform="rotate(45 1435.74 16.1905)" stroke="#ffffff" id="svg_16" d="m1430.2774,10.72295l10.9352,0l0,10.9352l-10.9352,0l0,-10.9352z" opacity="undefined" stroke-width="3" fill="#ffffff"/>
  <path transform="rotate(45 80.6421 16.1905)" stroke="#ffffff" id="svg_17" d="m75.1747,10.72295l10.9352,0l0,10.9352l-10.9352,0l0,-10.9352z" opacity="undefined" stroke-width="3" fill="#ffffff"/>
  <line stroke="#ffffff" stroke-width="3" stroke-linecap="undefined" stroke-linejoin="undefined" id="svg_18" y2="17.37326" x2="484.23029" y1="17.37326" x1="358.61227" fill="none"/>
 </g>
</svg>